<svg 
 xmlns="http://www.w3.org/2000/svg"
 xmlns:xlink="http://www.w3.org/1999/xlink"
 width="115px" height="44px">
<path fill-rule="evenodd"  fill="rgb(49, 114, 185)"
 d="M114.331,41.537 L114.331,38.893 C114.331,38.362 114.241,37.956 114.057,37.673 C113.875,37.390 113.538,37.249 113.044,37.249 C113.011,37.249 112.916,37.264 112.761,37.290 C112.605,37.317 112.441,37.392 112.269,37.514 C112.097,37.637 111.942,37.821 111.808,38.066 C111.673,38.311 111.605,38.651 111.605,39.087 L111.605,41.537 L110.936,41.537 L110.936,37.811 C110.936,37.682 110.931,37.518 110.920,37.321 C110.910,37.124 110.899,36.936 110.885,36.759 L111.574,36.759 C111.588,36.889 111.596,37.016 111.600,37.142 C111.603,37.268 111.605,37.396 111.605,37.525 L111.625,37.525 C111.699,37.396 111.794,37.277 111.909,37.167 C112.024,37.059 112.152,36.965 112.294,36.887 C112.436,36.808 112.587,36.747 112.745,36.703 C112.904,36.659 113.061,36.637 113.217,36.637 C113.825,36.637 114.274,36.798 114.565,37.122 C114.855,37.445 115.000,37.906 115.000,38.505 L115.000,41.537 L114.331,41.537 ZM103.858,22.441 C106.268,22.441 108.585,21.448 110.808,19.459 L113.223,21.641 C110.273,24.351 107.151,25.706 103.858,25.706 C100.336,25.706 97.334,24.456 94.851,21.955 C92.368,19.454 91.127,16.430 91.127,12.883 C91.127,9.347 92.368,6.323 94.851,3.811 C97.334,1.300 100.336,0.044 103.858,0.044 C107.151,0.044 110.273,1.400 113.223,4.109 L110.808,6.323 C108.585,4.334 106.268,3.340 103.858,3.340 C101.250,3.340 99.019,4.272 97.165,6.134 C95.310,7.996 94.383,10.246 94.383,12.883 C94.383,15.530 95.310,17.785 97.165,19.648 C99.019,21.510 101.250,22.441 103.858,22.441 ZM89.134,40.946 C88.910,41.170 88.645,41.345 88.338,41.471 C88.030,41.597 87.690,41.660 87.319,41.660 C86.954,41.660 86.618,41.597 86.310,41.471 C86.002,41.345 85.737,41.170 85.515,40.946 C85.291,40.720 85.117,40.455 84.993,40.149 C84.867,39.842 84.805,39.509 84.805,39.148 C84.805,38.787 84.867,38.454 84.993,38.147 C85.117,37.842 85.291,37.576 85.515,37.351 C85.737,37.127 86.002,36.952 86.310,36.825 C86.618,36.700 86.954,36.637 87.319,36.637 C87.690,36.637 88.030,36.700 88.338,36.825 C88.645,36.952 88.910,37.127 89.134,37.351 C89.356,37.576 89.530,37.842 89.655,38.147 C89.780,38.454 89.843,38.787 89.843,39.148 C89.843,39.509 89.780,39.842 89.655,40.149 C89.530,40.455 89.356,40.720 89.134,40.946 ZM88.986,38.403 C88.902,38.172 88.782,37.971 88.626,37.800 C88.471,37.631 88.283,37.496 88.064,37.397 C87.844,37.298 87.596,37.249 87.319,37.249 C87.042,37.249 86.793,37.298 86.574,37.397 C86.354,37.496 86.168,37.631 86.016,37.800 C85.864,37.971 85.746,38.172 85.662,38.403 C85.577,38.634 85.534,38.883 85.534,39.148 C85.534,39.414 85.577,39.662 85.662,39.894 C85.746,40.125 85.864,40.326 86.016,40.495 C86.168,40.667 86.354,40.801 86.574,40.899 C86.793,40.998 87.042,41.047 87.319,41.047 C87.596,41.047 87.844,40.998 88.064,40.899 C88.283,40.801 88.471,40.667 88.626,40.495 C88.782,40.326 88.902,40.125 88.986,39.894 C89.071,39.662 89.113,39.414 89.113,39.148 C89.113,38.883 89.071,38.634 88.986,38.403 ZM81.692,0.327 L84.918,0.327 L84.918,25.439 L81.692,25.439 L81.692,0.327 ZM83.690,35.004 L83.051,35.504 C82.734,35.033 82.271,34.799 81.662,34.799 C81.474,34.799 81.288,34.824 81.105,34.876 C80.922,34.927 80.759,35.005 80.614,35.110 C80.468,35.216 80.352,35.353 80.264,35.518 C80.176,35.685 80.132,35.881 80.132,36.106 C80.132,36.432 80.224,36.687 80.406,36.866 C80.588,37.047 80.814,37.195 81.085,37.311 C81.355,37.426 81.651,37.530 81.972,37.622 C82.293,37.714 82.589,37.837 82.858,37.990 C83.129,38.143 83.356,38.345 83.538,38.597 C83.720,38.849 83.811,39.193 83.811,39.628 C83.811,39.955 83.742,40.250 83.604,40.511 C83.466,40.773 83.282,40.992 83.056,41.170 C82.830,41.347 82.576,41.483 82.296,41.578 C82.015,41.674 81.733,41.721 81.450,41.721 C81.011,41.721 80.593,41.638 80.198,41.471 C79.803,41.305 79.466,41.030 79.189,40.649 L79.858,40.170 C80.013,40.435 80.229,40.647 80.505,40.808 C80.781,40.967 81.108,41.047 81.485,41.047 C81.667,41.047 81.849,41.019 82.031,40.961 C82.213,40.903 82.376,40.818 82.521,40.705 C82.665,40.594 82.785,40.455 82.880,40.292 C82.974,40.128 83.021,39.941 83.021,39.730 C83.021,39.479 82.968,39.269 82.864,39.103 C82.759,38.935 82.621,38.795 82.449,38.684 C82.276,38.571 82.080,38.478 81.860,38.403 C81.641,38.328 81.414,38.254 81.181,38.178 C80.948,38.103 80.722,38.019 80.502,37.923 C80.282,37.828 80.087,37.707 79.914,37.561 C79.742,37.415 79.603,37.230 79.499,37.009 C79.394,36.788 79.341,36.510 79.341,36.177 C79.341,35.830 79.407,35.527 79.539,35.269 C79.671,35.010 79.847,34.796 80.066,34.625 C80.286,34.455 80.534,34.329 80.811,34.247 C81.088,34.166 81.372,34.125 81.662,34.125 C82.068,34.125 82.436,34.190 82.768,34.319 C83.099,34.448 83.406,34.676 83.690,35.004 ZM61.865,7.295 L61.865,25.439 L58.640,25.439 L58.640,0.327 L61.585,0.327 L71.869,18.251 L71.869,0.327 L75.111,0.327 L75.111,25.439 L72.290,25.439 L61.865,7.295 ZM60.183,36.831 C60.467,36.960 60.705,37.132 60.898,37.347 C61.091,37.561 61.238,37.812 61.339,38.102 C61.441,38.392 61.492,38.699 61.492,39.026 L61.492,39.332 L57.538,39.332 C57.558,39.570 57.615,39.795 57.710,40.006 C57.805,40.217 57.930,40.399 58.086,40.552 C58.241,40.705 58.420,40.826 58.623,40.914 C58.826,41.003 59.045,41.047 59.282,41.047 C59.640,41.047 59.949,40.964 60.209,40.797 C60.469,40.630 60.667,40.438 60.802,40.220 L61.319,40.649 C61.035,41.010 60.723,41.268 60.381,41.425 C60.040,41.581 59.674,41.660 59.282,41.660 C58.930,41.660 58.604,41.597 58.303,41.471 C58.002,41.345 57.744,41.170 57.528,40.946 C57.312,40.720 57.141,40.455 57.016,40.149 C56.891,39.842 56.828,39.509 56.828,39.148 C56.828,38.787 56.889,38.454 57.011,38.147 C57.133,37.842 57.301,37.576 57.518,37.351 C57.734,37.127 57.987,36.952 58.278,36.825 C58.568,36.700 58.882,36.637 59.221,36.637 C59.579,36.637 59.900,36.702 60.183,36.831 ZM58.060,37.719 C57.908,37.862 57.786,38.025 57.695,38.209 C57.604,38.393 57.558,38.583 57.558,38.781 L60.762,38.781 C60.762,38.325 60.626,37.956 60.356,37.673 C60.086,37.390 59.707,37.249 59.221,37.249 C59.005,37.249 58.795,37.292 58.592,37.376 C58.389,37.462 58.212,37.576 58.060,37.719 ZM52.247,34.309 L52.977,34.309 L52.977,40.864 L56.322,40.864 L56.322,41.537 L52.247,41.537 L52.247,34.309 ZM39.981,25.706 C36.459,25.706 33.452,24.451 30.958,21.940 C28.465,19.428 27.219,16.398 27.219,12.852 C27.219,9.304 28.465,6.275 30.958,3.764 C33.452,1.252 36.459,-0.003 39.981,-0.003 C43.503,-0.003 46.510,1.252 49.003,3.764 C51.496,6.275 52.743,9.304 52.743,12.852 C52.743,16.398 51.496,19.428 49.003,21.940 C46.510,24.451 43.503,25.706 39.981,25.706 ZM46.705,6.079 C44.851,4.211 42.609,3.277 39.981,3.277 C37.352,3.277 35.111,4.211 33.257,6.079 C31.403,7.947 30.476,10.204 30.476,12.852 C30.476,15.498 31.405,17.759 33.265,19.632 C35.124,21.505 37.363,22.441 39.981,22.441 C42.609,22.441 44.851,21.505 46.705,19.632 C48.559,17.759 49.487,15.498 49.487,12.852 C49.487,10.204 48.559,7.947 46.705,6.079 ZM17.784,0.327 L21.010,0.327 L21.010,25.439 L17.784,25.439 L17.784,0.327 ZM-0.001,0.327 L3.224,0.327 L3.224,22.175 L12.137,22.175 L12.137,25.439 L-0.001,25.439 L-0.001,0.327 ZM42.982,38.726 L-0.001,38.726 L-0.001,37.379 L42.982,37.379 L42.982,38.726 ZM66.712,40.639 C66.495,40.966 66.231,41.197 65.921,41.333 C65.610,41.469 65.282,41.537 64.937,41.537 C64.593,41.537 64.270,41.476 63.970,41.354 C63.669,41.232 63.407,41.062 63.184,40.848 C62.961,40.633 62.785,40.377 62.657,40.077 C62.528,39.778 62.464,39.454 62.464,39.108 C62.464,38.761 62.525,38.437 62.647,38.138 C62.769,37.838 62.935,37.576 63.149,37.351 C63.362,37.127 63.615,36.952 63.909,36.825 C64.202,36.700 64.526,36.637 64.877,36.637 C65.019,36.637 65.169,36.650 65.327,36.678 C65.487,36.705 65.645,36.752 65.804,36.820 C65.963,36.889 66.120,36.982 66.275,37.101 C66.431,37.220 66.576,37.371 66.712,37.556 L66.731,37.556 L66.731,36.759 L67.400,36.759 L67.400,41.497 C67.400,41.755 67.368,42.031 67.305,42.323 C67.240,42.616 67.115,42.885 66.929,43.130 C66.744,43.375 66.485,43.580 66.154,43.743 C65.822,43.906 65.390,43.988 64.856,43.988 C64.384,43.988 63.961,43.910 63.589,43.752 C63.217,43.596 62.880,43.355 62.576,43.028 L63.072,42.497 C63.268,42.762 63.523,42.975 63.838,43.135 C64.152,43.296 64.502,43.375 64.887,43.375 C65.224,43.375 65.512,43.325 65.748,43.227 C65.985,43.129 66.175,42.994 66.321,42.824 C66.467,42.654 66.571,42.455 66.636,42.227 C66.699,41.999 66.731,41.755 66.731,41.497 L66.731,40.639 L66.712,40.639 ZM66.752,39.087 C66.752,38.835 66.712,38.599 66.630,38.378 C66.549,38.156 66.431,37.963 66.275,37.795 C66.120,37.629 65.931,37.496 65.708,37.397 C65.485,37.298 65.235,37.249 64.958,37.249 C64.708,37.249 64.476,37.298 64.263,37.397 C64.050,37.496 63.865,37.629 63.706,37.795 C63.547,37.963 63.422,38.156 63.331,38.378 C63.240,38.599 63.194,38.835 63.194,39.087 C63.194,39.339 63.240,39.576 63.331,39.797 C63.422,40.018 63.547,40.212 63.706,40.379 C63.865,40.545 64.050,40.678 64.263,40.776 C64.476,40.876 64.708,40.924 64.958,40.924 C65.201,40.924 65.432,40.881 65.652,40.792 C65.872,40.703 66.066,40.579 66.235,40.419 C66.404,40.259 66.534,40.067 66.625,39.842 C66.717,39.618 66.759,39.366 66.752,39.087 ZM69.707,38.852 C70.007,38.744 70.328,38.676 70.670,38.648 C71.011,38.621 71.324,38.608 71.608,38.608 L71.942,38.608 L71.942,38.485 C71.942,37.661 71.537,37.249 70.726,37.249 C70.171,37.249 69.688,37.436 69.276,37.811 L68.871,37.331 C69.317,36.868 69.986,36.637 70.877,36.637 C71.108,36.637 71.329,36.671 71.542,36.738 C71.754,36.806 71.938,36.911 72.094,37.051 C72.249,37.190 72.375,37.365 72.469,37.576 C72.564,37.787 72.611,38.039 72.611,38.332 L72.611,40.465 C72.611,40.649 72.620,40.841 72.636,41.042 C72.653,41.243 72.672,41.408 72.692,41.537 L72.043,41.537 C72.023,41.422 72.008,41.296 71.998,41.160 C71.988,41.024 71.983,40.891 71.983,40.761 L71.962,40.761 C71.766,41.082 71.535,41.311 71.268,41.451 C71.001,41.591 70.675,41.660 70.289,41.660 C70.080,41.660 69.878,41.630 69.681,41.573 C69.485,41.516 69.312,41.427 69.159,41.308 C69.007,41.188 68.886,41.042 68.795,40.869 C68.703,40.695 68.658,40.492 68.658,40.261 C68.658,39.873 68.757,39.568 68.957,39.347 C69.156,39.126 69.406,38.962 69.707,38.852 ZM69.484,40.573 C69.548,40.685 69.634,40.776 69.742,40.848 C69.850,40.919 69.970,40.971 70.102,41.002 C70.234,41.032 70.368,41.047 70.502,41.047 C70.746,41.047 70.957,41.007 71.136,40.924 C71.315,40.843 71.466,40.733 71.587,40.594 C71.709,40.454 71.798,40.290 71.856,40.103 C71.913,39.916 71.942,39.716 71.942,39.505 L71.942,39.158 L71.598,39.158 C71.429,39.158 71.217,39.168 70.964,39.184 C70.710,39.201 70.467,39.242 70.234,39.307 C70.001,39.371 69.802,39.472 69.636,39.608 C69.470,39.744 69.388,39.931 69.388,40.170 C69.388,40.326 69.420,40.460 69.484,40.573 ZM74.983,41.537 L74.314,41.537 L74.314,33.819 L74.983,33.819 L74.983,41.537 ZM91.880,41.537 L91.211,41.537 L91.211,33.819 L91.880,33.819 L91.880,41.537 ZM94.161,39.404 C94.161,39.670 94.181,39.904 94.222,40.108 C94.262,40.313 94.331,40.484 94.430,40.623 C94.527,40.763 94.659,40.869 94.825,40.940 C94.990,41.011 95.197,41.047 95.448,41.047 C95.481,41.047 95.576,41.034 95.732,41.007 C95.887,40.979 96.051,40.905 96.224,40.781 C96.395,40.659 96.549,40.476 96.685,40.230 C96.819,39.985 96.887,39.645 96.887,39.209 L96.887,36.759 L97.556,36.759 L97.556,40.486 C97.556,40.615 97.562,40.778 97.572,40.976 C97.581,41.174 97.593,41.360 97.607,41.537 L96.917,41.537 C96.904,41.408 96.896,41.281 96.893,41.154 C96.889,41.029 96.887,40.901 96.887,40.771 L96.867,40.771 C96.793,40.901 96.698,41.021 96.583,41.129 C96.468,41.238 96.340,41.331 96.198,41.409 C96.056,41.488 95.905,41.549 95.747,41.594 C95.588,41.638 95.431,41.660 95.276,41.660 C94.667,41.660 94.217,41.498 93.927,41.175 C93.637,40.852 93.492,40.391 93.492,39.792 L93.492,36.759 L94.161,36.759 L94.161,39.404 ZM99.543,35.411 L100.212,35.411 L100.212,36.759 L101.581,36.759 L101.581,37.371 L100.212,37.371 L100.212,40.190 C100.212,40.367 100.229,40.511 100.263,40.623 C100.297,40.737 100.344,40.823 100.405,40.884 C100.466,40.946 100.538,40.987 100.623,41.011 C100.707,41.036 100.800,41.047 100.902,41.047 C101.016,41.047 101.135,41.030 101.257,40.996 C101.378,40.962 101.490,40.918 101.591,40.864 L101.621,41.486 C101.371,41.602 101.071,41.660 100.720,41.660 C100.591,41.660 100.457,41.643 100.319,41.609 C100.180,41.575 100.054,41.511 99.939,41.414 C99.824,41.320 99.730,41.190 99.655,41.027 C99.580,40.864 99.543,40.649 99.543,40.384 L99.543,37.371 L98.540,37.371 L98.540,36.759 L99.543,36.759 L99.543,35.411 ZM102.980,34.432 C103.101,34.432 103.212,34.478 103.314,34.570 C103.415,34.661 103.466,34.779 103.466,34.922 C103.466,35.065 103.415,35.181 103.314,35.274 C103.212,35.366 103.101,35.411 102.980,35.411 C102.858,35.411 102.746,35.366 102.645,35.274 C102.543,35.181 102.492,35.065 102.492,34.922 C102.492,34.779 102.543,34.661 102.645,34.570 C102.746,34.478 102.858,34.432 102.980,34.432 ZM103.314,41.537 L102.645,41.537 L102.645,36.759 L103.314,36.759 L103.314,41.537 ZM105.392,37.351 C105.615,37.127 105.880,36.952 106.188,36.825 C106.495,36.700 106.831,36.637 107.196,36.637 C107.568,36.637 107.907,36.700 108.215,36.825 C108.522,36.952 108.787,37.127 109.011,37.351 C109.233,37.576 109.407,37.842 109.533,38.147 C109.657,38.454 109.720,38.787 109.720,39.148 C109.720,39.509 109.657,39.842 109.533,40.149 C109.407,40.455 109.233,40.720 109.011,40.946 C108.787,41.170 108.522,41.345 108.215,41.471 C107.907,41.597 107.568,41.660 107.196,41.660 C106.831,41.660 106.495,41.597 106.188,41.471 C105.880,41.345 105.615,41.170 105.392,40.946 C105.169,40.720 104.995,40.455 104.870,40.149 C104.744,39.842 104.682,39.509 104.682,39.148 C104.682,38.787 104.744,38.454 104.870,38.147 C104.995,37.842 105.169,37.576 105.392,37.351 ZM105.539,39.894 C105.623,40.125 105.742,40.326 105.893,40.495 C106.046,40.667 106.231,40.801 106.451,40.899 C106.670,40.998 106.919,41.047 107.196,41.047 C107.473,41.047 107.721,40.998 107.941,40.899 C108.161,40.801 108.348,40.667 108.503,40.495 C108.659,40.326 108.779,40.125 108.864,39.894 C108.948,39.662 108.990,39.414 108.990,39.148 C108.990,38.883 108.948,38.634 108.864,38.403 C108.779,38.172 108.659,37.971 108.503,37.800 C108.348,37.631 108.161,37.496 107.941,37.397 C107.721,37.298 107.473,37.249 107.196,37.249 C106.919,37.249 106.670,37.298 106.451,37.397 C106.231,37.496 106.046,37.631 105.893,37.800 C105.742,37.971 105.623,38.172 105.539,38.403 C105.454,38.634 105.412,38.883 105.412,39.148 C105.412,39.414 105.454,39.662 105.539,39.894 Z"/>
</svg>