<svg version="1.2" xmlns="http://www.w3.org/2000/svg" viewBox="0 0 14 17" width="14" height="17">
	<title>HERO IMAGE</title>
	<style>
		.s0 { fill: #787878 }
	</style>
	<g id="HERO IMAGE">
		<g id="Secured">
			<path id="-e-Shield-icon" class="s0" d="m7.2 17q-0.1 0-0.2 0q-0.1 0-0.2 0c-7-2.5-6.9-8.4-6.8-12.6q0-0.7 0-1.3c0-0.4 0.3-0.6 0.6-0.6c2.5 0 4.4-0.8 6-2.3c0.2-0.3 0.6-0.3 0.8 0c1.6 1.5 3.5 2.3 6 2.3c0.3 0 0.6 0.2 0.6 0.6q0 0.6 0 1.3c0.1 4.2 0.2 10.1-6.8 12.6zm-0.2-1.2c-6-2.2-5.9-7.1-5.8-11.4q0-0.4 0-0.8c2.3-0.1 4.2-0.8 5.8-2.2c1.6 1.4 3.5 2.1 5.8 2.2q0 0.4 0 0.8c0.1 4.3 0.2 9.2-5.8 11.4zm2.8-9.4c0.3 0.3 0.3 0.6 0 0.9l-3.2 3.3q-0.2 0.1-0.4 0.1q-0.2 0-0.4-0.1l-1.6-1.7c-0.3-0.2-0.3-0.6 0-0.8c0.2-0.3 0.6-0.3 0.8 0l1.2 1.2l2.8-2.9c0.2-0.2 0.6-0.2 0.8 0z" />
		</g>
	</g>
</svg>
