<svg
 xmlns="http://www.w3.org/2000/svg"
 xmlns:xlink="http://www.w3.org/1999/xlink"
 width="20px" height="20px">
<path fill-rule="evenodd"  fill="rgb(28, 28, 28)"
 d="M19.425,11.678 L19.425,19.047 L15.461,19.047 L15.461,12.172 C15.461,10.444 14.887,9.265 13.452,9.265 C12.356,9.265 11.704,10.060 11.418,10.828 C11.313,11.103 11.286,11.485 11.286,11.870 L11.286,19.047 L7.320,19.047 C7.320,19.047 7.374,7.402 7.320,6.195 L11.286,6.195 L11.286,8.017 C11.278,8.031 11.267,8.045 11.260,8.058 L11.286,8.058 L11.286,8.017 C11.813,7.143 12.754,5.893 14.860,5.893 C17.469,5.893 19.425,7.730 19.425,11.678 ZM3.172,0.000 C1.815,0.000 0.927,0.959 0.927,2.220 C0.927,3.454 1.789,4.442 3.119,4.442 L3.145,4.442 C4.528,4.442 5.389,3.454 5.389,2.220 C5.362,0.959 4.528,0.000 3.172,0.000 ZM1.163,19.047 L5.127,19.047 L5.127,6.195 L1.163,6.195 L1.163,19.047 Z"/>
</svg>
