<svg
 xmlns="http://www.w3.org/2000/svg"
 xmlns:xlink="http://www.w3.org/1999/xlink"
 width="25px" height="18px">
<path fill-rule="evenodd"  fill="rgb(28, 28, 28)"
 d="M22.746,0.503 L3.207,0.503 C1.964,0.503 0.952,1.556 0.952,2.852 L0.952,15.647 C0.952,16.943 1.964,17.997 3.207,17.997 L22.746,17.997 C23.989,17.997 24.1000,16.943 24.1000,15.647 L24.1000,2.852 C24.1000,1.556 23.989,0.503 22.746,0.503 ZM22.376,2.069 L12.976,9.134 L3.576,2.069 L22.376,2.069 ZM22.746,16.430 L3.207,16.430 C2.792,16.430 2.455,16.080 2.455,15.647 L2.455,3.158 L12.537,10.736 C12.668,10.835 12.822,10.883 12.976,10.883 C13.130,10.883 13.284,10.835 13.416,10.736 L23.497,3.158 L23.497,15.647 C23.497,16.080 23.160,16.430 22.746,16.430 Z"/>
</svg>
