<svg
 xmlns="http://www.w3.org/2000/svg"
 xmlns:xlink="http://www.w3.org/1999/xlink"
 width="19px" height="17px">
<path fill-rule="evenodd"  fill="rgb(28, 28, 28)"
 d="M18.504,2.613 C17.824,2.919 17.092,3.126 16.325,3.218 C17.108,2.743 17.710,1.989 17.993,1.090 C17.260,1.532 16.448,1.851 15.583,2.024 C14.891,1.276 13.905,0.809 12.813,0.809 C10.717,0.809 9.018,2.531 9.018,4.656 C9.018,4.957 9.052,5.251 9.116,5.533 C5.962,5.372 3.166,3.841 1.294,1.513 C0.967,2.081 0.780,2.742 0.780,3.447 C0.780,4.782 1.450,5.959 2.469,6.649 C1.846,6.629 1.261,6.456 0.750,6.168 C0.749,6.184 0.749,6.201 0.749,6.217 C0.749,8.080 2.057,9.635 3.794,9.989 C3.475,10.076 3.140,10.124 2.794,10.124 C2.549,10.124 2.311,10.099 2.080,10.055 C2.563,11.583 3.964,12.695 5.625,12.726 C4.326,13.758 2.690,14.373 0.912,14.373 C0.605,14.373 0.303,14.355 0.006,14.319 C1.686,15.411 3.681,16.048 5.824,16.048 C12.804,16.048 16.622,10.186 16.622,5.102 C16.622,4.935 16.618,4.769 16.610,4.604 C17.352,4.062 17.996,3.384 18.504,2.613 Z"/>
</svg>
